<svg width="149" height="48" viewBox="0 0 149 48" fill="none" xmlns="http://www.w3.org/2000/svg">
<path d="M52.9853 16.354L44.4234 14.9735L50.9615 12.2763L52.437 6.4518L50.7118 3.42789L42.2822 0.99646L46.5736 7.06625L46.5988 7.10214L43.2555 7.92678L34.9886 2.32423L27.9751 3.1474L20.9608 2.32423L12.6939 7.92678L9.35064 7.10214L9.3759 7.06625L13.6672 0.99646L5.23836 3.42789L3.4991 6.4518L4.97238 12.2763L11.5104 14.9735L2.94857 16.354L0.997559 21.5479L6.86693 24.3477L12.4131 22.418L13.211 28.2593L16.8597 36.6433L18.6346 41.192L27.224 47.1453L27.9543 47.6514V47.6617H27.9602L27.9677 47.6565L27.9751 47.6617H27.9803V47.6514L28.7106 47.1453L37.3 41.192L39.0749 36.6433L42.7206 28.2593L43.5178 22.418L49.064 24.3477L54.9333 21.5479L52.9853 16.354ZM5.80747 4.15073L11.5453 2.4956L8.4316 6.89854L4.63508 6.20573L5.80747 4.15073ZM4.54444 7.05527L7.88775 7.66532L5.53554 10.9609L4.54444 7.05527ZM12.3455 21.5443L6.92933 23.4272L2.08822 21.118L3.59271 17.115L12.3455 15.703V21.5443ZM12.3455 14.3913L6.01029 11.7775L8.81347 7.85134L12.3396 8.72212L12.3455 14.3913ZM36.4745 16.6719L35.6573 19.3743H20.284L19.4667 16.6719L27.9677 4.56378L36.4745 16.6719ZM28.3065 27.7195H22.7707L20.553 20.226H35.3831L33.1654 27.7195H28.3065ZM32.9076 28.5691L30.1587 35.752L27.9729 37.5243L25.7864 35.752L23.0374 28.5691H32.9076ZM13.2036 13.4092V8.613L21.1748 3.21111L27.3369 3.93395L27.3778 3.93835L27.3599 3.95592L18.6963 16.2259L13.2036 13.4092ZM17.6614 36.3225L14.0558 28.0308L13.2512 22.1602L19.732 20.4867L21.9861 28.1084L20.1614 31.8683L17.703 36.4309L17.6614 36.3225ZM18.1146 37.4833L20.6807 32.723L27.2931 38.0853L27.0702 38.2648L19.2498 40.4062L18.1146 37.4833ZM27.9692 46.6195L19.9876 41.088L27.9692 38.9019L35.95 41.088L27.9692 46.6195ZM36.6833 40.4047L28.8629 38.2633L28.6401 38.0839L35.2524 32.7215L37.8185 37.4819L36.6833 40.4047ZM41.884 28.0278L38.2784 36.3196L38.2361 36.428L35.7776 31.8654L33.9477 28.1084L36.2026 20.4867L42.6834 22.1602L41.884 28.0278ZM42.7325 13.4092L37.2398 16.2259L28.5762 3.95592L28.5583 3.93835L28.5992 3.93395L34.7613 3.21111L42.7325 8.613V13.4092ZM50.4043 10.9595L48.0521 7.66386L51.3954 7.0538L50.4043 10.9595ZM44.393 2.49706L50.1308 4.15219L51.3032 6.20719L47.5067 6.90001L44.393 2.49706ZM43.5965 8.72212L47.1286 7.85207L49.9317 11.7783L43.5965 14.392V8.72212ZM49.0134 23.4279L43.5965 21.545V15.703L52.3493 17.115L53.8538 21.118L49.0134 23.4279Z" fill="white"/>
<path d="M90.7367 13.1158C90.71 15.679 90.6297 16.5476 90.2545 17.3393C89.5584 18.8443 88.1119 19.5568 85.3265 19.7421C84.2284 19.8476 82.0857 19.874 78.524 19.874C73.3812 19.874 71.7207 19.6359 70.2772 18.7124C68.5089 17.6037 68 15.7552 68 10.5283C68 5.8815 68.5357 4.21832 70.4109 3.16226C72.0179 2.23802 73.7319 2 78.7402 2C85.409 2 86.8555 2.13256 88.3823 2.87151C89.8288 3.58483 90.4982 5.14182 90.4982 7.72925V8.31001H85.302C85.195 6.38317 84.7931 6.22425 80.079 6.22425C75.6331 6.22425 74.83 6.33044 74.1606 6.91121C73.5172 7.49197 73.3835 8.20455 73.3835 11.0564C73.3835 15.2799 73.7854 15.597 79.0077 15.597C83.0523 15.597 83.6415 15.5706 84.3919 15.2542C85.1683 14.9371 85.4632 14.3827 85.4632 13.1158H90.7367Z" fill="white"/>
<path d="M108.165 7.30454C109.638 7.56819 110.817 8.33423 111.298 9.3632C111.647 10.1292 111.754 11.0535 111.754 13.0858C111.754 16.9146 111.433 17.9706 109.959 18.8414C109.102 19.3694 108.379 19.5547 106.719 19.7129C105.647 19.792 103.853 19.8711 102.567 19.8711C98.4161 19.8711 96.5676 19.5547 95.3893 18.6568C94.1842 17.7597 93.916 16.7527 93.916 13.3502C93.916 9.7616 94.3982 8.51659 96.0855 7.75347C97.3485 7.19834 99.4065 6.96106 102.782 6.96106C104.843 6.96399 106.879 7.09288 108.165 7.30454ZM98.5499 13.3765C98.5499 16.1749 99.032 16.5183 102.915 16.5183C106.638 16.5183 107.121 16.1749 107.121 13.482C107.121 10.6309 106.692 10.3145 102.754 10.3145C99.1123 10.3145 98.5499 10.7364 98.5499 13.3765Z" fill="white"/>
<path d="M117.011 2.26135L122.207 15.6731L126.814 2.26135H133.375L137.849 15.6731L143.206 2.26135H148.723L141.33 19.8709H134.049L130.086 7.20112L125.934 19.8709H118.703L111.496 2.26135H117.011Z" fill="white"/>
<path d="M68 26.0566H72.168C73.2223 26.0566 73.492 26.0889 73.8352 26.258C74.3828 26.5239 74.5871 27.0153 74.5871 28.0303C74.5871 29.0454 74.3991 29.5851 73.9496 29.8612C73.6309 30.0546 73.2631 30.111 72.3151 30.111H69.6509V31.4292H68V26.0566ZM72.0618 28.8037C72.7401 28.8037 72.9362 28.6572 72.9362 28.1512C72.9362 27.5067 72.7728 27.3617 72.0618 27.3617H69.6509V28.8037H72.0618Z" fill="white"/>
<path d="M77.8071 26.0566H82.5063C83.2909 26.0566 83.6587 26.105 83.9774 26.25C84.4514 26.4697 84.6721 26.9589 84.6721 27.7967C84.6721 28.3768 84.5658 28.7634 84.3288 29.0132C84.1409 29.2065 83.8875 29.2871 83.152 29.3918C83.2746 29.3999 83.3808 29.4079 83.4217 29.4079C83.9937 29.4401 84.2062 29.5046 84.3697 29.7009C84.5331 29.8971 84.5985 30.1278 84.5985 30.587V31.4329H82.915V30.7643C82.915 30.4581 82.8578 30.289 82.7107 30.1842C82.5799 30.0956 82.4491 30.0795 81.9996 30.0795H79.458V31.4329H77.8071V26.0566ZM82.0487 28.7664C82.8496 28.7664 83.0049 28.6697 83.0049 28.138C83.0049 27.7916 82.9722 27.6466 82.8659 27.5338C82.7434 27.4049 82.6044 27.3807 82.1059 27.3807H79.458V28.7664H82.0487Z" fill="white"/>
<path d="M93.9664 26.0828C94.8082 26.2358 95.2168 26.6628 95.3312 27.5248C95.3639 27.742 95.3802 28.1771 95.3802 28.8298C95.3802 30.1268 95.2413 30.6505 94.7755 31.0269C94.4486 31.3008 93.9909 31.4297 93.1982 31.4619C92.901 31.4781 92.1766 31.4861 91.6454 31.4861C90.346 31.4861 89.684 31.4619 89.3571 31.3975C88.7523 31.2928 88.4009 31.0672 88.1966 30.6725C87.9923 30.2777 87.9351 29.883 87.9351 28.7068C87.9351 27.8045 87.9514 27.579 88.0495 27.2164C88.2048 26.6445 88.5235 26.3376 89.1364 26.1611C89.5941 26.0322 90.0926 26 91.531 26C93.0979 26.0022 93.5801 26.0183 93.9664 26.0828ZM89.8965 27.5087C89.6736 27.6778 89.6104 27.9437 89.6104 28.7171C89.6104 29.5065 89.6758 29.7965 89.8801 29.9621C90.103 30.1393 90.3705 30.1715 91.6209 30.1715C93.0511 30.1715 93.3453 30.1232 93.5332 29.8654C93.6885 29.6721 93.7294 29.3981 93.7294 28.6812C93.7294 27.3278 93.7049 27.3117 91.6617 27.3117C90.4418 27.3153 90.1067 27.3556 89.8942 27.5087H89.8965Z" fill="white"/>
<path d="M100.821 27.3873H98.394V26.0566H104.908V27.3859H102.48V31.43H100.821V27.3873Z" fill="white"/>
<path d="M113.952 26.0828C114.794 26.2358 115.202 26.6628 115.317 27.5248C115.349 27.742 115.365 28.1771 115.365 28.8298C115.365 30.1268 115.226 30.6505 114.76 31.0269C114.433 31.3008 113.976 31.4297 113.183 31.4619C112.886 31.4781 112.161 31.4861 111.63 31.4861C110.331 31.4861 109.669 31.4619 109.342 31.3975C108.737 31.2928 108.386 31.0672 108.181 30.6725C107.977 30.2777 107.92 29.883 107.92 28.7068C107.92 27.8045 107.936 27.579 108.034 27.2164C108.19 26.6445 108.508 26.3376 109.121 26.1611C109.579 26.0322 110.077 26 111.516 26C113.087 26.0022 113.569 26.0183 113.952 26.0828ZM109.881 27.5087C109.658 27.6778 109.595 27.9437 109.595 28.7171C109.595 29.5065 109.661 29.7965 109.865 29.9621C110.088 30.1393 110.355 30.1715 111.606 30.1715C113.036 30.1715 113.33 30.1232 113.519 29.8654C113.673 29.6721 113.714 29.3981 113.714 28.6812C113.714 27.3278 113.69 27.3117 111.647 27.3117C110.431 27.3153 110.096 27.3556 109.884 27.5087H109.881Z" fill="white"/>
<path d="M125.543 29.4095C125.534 30.1909 125.51 30.4568 125.394 30.6985C125.181 31.1576 124.74 31.3752 123.89 31.4308C123.555 31.463 122.901 31.4711 121.814 31.4711C120.245 31.4711 119.739 31.3979 119.297 31.1166C118.758 30.7783 118.603 30.2144 118.603 28.6193C118.603 27.2014 118.766 26.6939 119.338 26.3717C119.828 26.0897 120.351 26.0172 121.88 26.0172C123.915 26.0172 124.356 26.0575 124.822 26.2831C125.263 26.5028 125.467 26.9759 125.467 27.7654V27.9426H123.882C123.849 27.3567 123.727 27.3062 122.288 27.3062C120.932 27.3062 120.687 27.3384 120.482 27.5156C120.278 27.6929 120.245 27.9104 120.245 28.7804C120.245 30.0694 120.368 30.166 121.961 30.166C123.196 30.166 123.373 30.158 123.604 30.0613C123.835 29.9646 123.931 29.7955 123.931 29.4088L125.543 29.4095Z" fill="white"/>
<path d="M134.802 26.0828C135.644 26.2358 136.052 26.6628 136.167 27.5248C136.199 27.742 136.216 28.1771 136.216 28.8298C136.216 30.1268 136.077 30.6505 135.611 31.0269C135.284 31.3008 134.826 31.4297 134.034 31.4619C133.736 31.4781 133.012 31.4861 132.481 31.4861C131.181 31.4861 130.519 31.4619 130.193 31.3975C129.588 31.2928 129.236 31.0672 129.032 30.6725C128.828 30.2777 128.771 29.883 128.771 28.7068C128.771 27.8045 128.787 27.579 128.885 27.2164C129.04 26.6445 129.359 26.3376 129.972 26.1611C130.43 26.0322 130.928 26 132.366 26C133.938 26.0022 134.418 26.0183 134.802 26.0828ZM130.732 27.5087C130.509 27.6778 130.446 27.9437 130.446 28.7171C130.446 29.5065 130.511 29.7965 130.716 29.9621C130.938 30.1393 131.206 30.1715 132.456 30.1715C133.887 30.1715 134.181 30.1232 134.369 29.8654C134.524 29.6721 134.565 29.3981 134.565 28.6812C134.565 27.3278 134.54 27.3117 132.497 27.3117C131.279 27.3153 130.944 27.3556 130.732 27.5087Z" fill="white"/>
<path d="M139.566 26.0566H141.225V30.1007H144.977V31.43H139.566V26.0566Z" fill="white"/>
<path d="M68 46.9068H72.0283V46.1749H68.7979V43.8593H71.7709V43.1274H68.7979V40.8251H71.9768V40.0932H68V46.9068Z" fill="#D96D49"/>
<path d="M78.4219 40.0932H77.4824L79.6059 43.5L77.4824 46.9068H78.4219L80.1207 44.1255H80.1722L81.871 46.9068H82.8105L80.7385 43.5L82.8105 40.0932H81.871L80.1722 42.9278H80.1207L78.4219 40.0932Z" fill="#D96D49"/>
<path d="M88.4697 46.9068H89.2677V44.4183H90.7091C92.2438 44.4183 92.9356 43.4534 92.9356 42.249C92.9356 41.0447 92.2438 40.0932 90.6962 40.0932H88.4697V46.9068ZM89.2677 43.6863V40.8251H90.6705C91.7419 40.8251 92.1505 41.4306 92.1505 42.249C92.1505 43.0675 91.7419 43.6863 90.6834 43.6863H89.2677Z" fill="#D96D49"/>
<path d="M98.8418 46.9068H102.703V46.1749H99.6397V40.0932H98.8418V46.9068Z" fill="#D96D49"/>
<path d="M113.862 43.5C113.862 41.3441 112.64 40 110.954 40C109.268 40 108.045 41.3441 108.045 43.5C108.045 45.6559 109.268 47 110.954 47C112.64 47 113.862 45.6559 113.862 43.5ZM113.09 43.5C113.09 45.27 112.151 46.2281 110.954 46.2281C109.757 46.2281 108.817 45.27 108.817 43.5C108.817 41.73 109.757 40.7719 110.954 40.7719C112.151 40.7719 113.09 41.73 113.09 43.5Z" fill="#D96D49"/>
<path d="M119.825 46.9068H120.623V44.2452H122.064C122.122 44.2452 122.177 44.2452 122.231 44.2419L123.621 46.9068H124.548L123.058 44.0922C123.898 43.7961 124.291 43.0875 124.291 42.1825C124.291 40.9781 123.596 40.0932 122.051 40.0932H119.825V46.9068ZM120.623 43.5V40.8251H122.025C123.094 40.8251 123.505 41.3641 123.505 42.1825C123.505 43.001 123.094 43.5 122.038 43.5H120.623Z" fill="#D96D49"/>
<path d="M130.241 46.9068H134.269V46.1749H131.039V43.8593H134.012V43.1274H131.039V40.8251H134.218V40.0932H130.241V46.9068Z" fill="#D96D49"/>
<path d="M140.277 46.9068H141.075V44.2452H142.516C142.574 44.2452 142.629 44.2452 142.683 44.2419L144.073 46.9068H145L143.51 44.0922C144.35 43.7961 144.743 43.0875 144.743 42.1825C144.743 40.9781 144.048 40.0932 142.503 40.0932H140.277V46.9068ZM141.075 43.5V40.8251H142.478C143.546 40.8251 143.958 41.3641 143.958 42.1825C143.958 43.001 143.546 43.5 142.49 43.5H141.075Z" fill="#D96D49"/>
</svg>
