<svg width="14" height="14" viewBox="0 0 14 14" fill="none" xmlns="http://www.w3.org/2000/svg">
<path d="M7.00065 13.6666C3.31865 13.6666 0.333984 10.682 0.333984 6.99998C0.333984 3.31798 3.31865 0.333313 7.00065 0.333313C10.6827 0.333313 13.6673 3.31798 13.6673 6.99998C13.6673 10.682 10.6827 13.6666 7.00065 13.6666ZM7.00065 12.3333C8.41514 12.3333 9.77169 11.7714 10.7719 10.7712C11.7721 9.77102 12.334 8.41447 12.334 6.99998C12.334 5.58549 11.7721 4.22894 10.7719 3.22874C9.77169 2.22855 8.41514 1.66665 7.00065 1.66665C5.58616 1.66665 4.22961 2.22855 3.22941 3.22874C2.22922 4.22894 1.66732 5.58549 1.66732 6.99998C1.66732 8.41447 2.22922 9.77102 3.22941 10.7712C4.22961 11.7714 5.58616 12.3333 7.00065 12.3333ZM6.33398 8.99998H7.66732V10.3333H6.33398V8.99998ZM7.66732 7.90331V8.33331H6.33398V7.33331C6.33398 7.1565 6.40422 6.98693 6.52925 6.86191C6.65427 6.73688 6.82384 6.66665 7.00065 6.66665C7.19004 6.66663 7.37552 6.61284 7.53553 6.51153C7.69554 6.41022 7.82349 6.26556 7.9045 6.09437C7.9855 5.92318 8.01623 5.73251 7.9931 5.54454C7.96998 5.35657 7.89395 5.17904 7.77387 5.03259C7.65379 4.88614 7.49459 4.7768 7.3148 4.71729C7.135 4.65779 6.94201 4.65056 6.75827 4.69645C6.57453 4.74234 6.40759 4.83947 6.2769 4.97652C6.1462 5.11358 6.0571 5.28493 6.01998 5.47065L4.71198 5.20865C4.79307 4.80337 4.98032 4.42689 5.2546 4.1177C5.52887 3.80851 5.88033 3.5777 6.27304 3.44886C6.66576 3.32002 7.08564 3.29777 7.48977 3.38439C7.8939 3.47101 8.26778 3.66339 8.5732 3.94186C8.87861 4.22034 9.1046 4.57492 9.22806 4.96936C9.35152 5.36379 9.36803 5.78394 9.27589 6.18685C9.18376 6.58976 8.98629 6.96098 8.70366 7.26256C8.42104 7.56413 8.06341 7.78525 7.66732 7.90331Z" />
</svg>
