<svg width="50" height="50" viewBox="0 0 50 50" fill="none" xmlns="http://www.w3.org/2000/svg">
<circle cx="25" cy="25" r="25" fill="#2B4266"/>
<path d="M25.4973 13.6185C26.4961 13.6828 27.4852 13.8542 28.4474 14.1297C28.9623 13.1576 29.3934 12.1433 29.736 11.098C29.8411 10.7928 30.0453 10.5316 30.3161 10.3561C30.5869 10.1805 30.9087 10.1006 31.2302 10.1292C31.5517 10.1578 31.8543 10.2932 32.0899 10.5138C32.3254 10.7345 32.4804 11.0276 32.5299 11.3465C32.6485 12.1156 32.6961 12.894 32.6719 13.6718C38.3981 12.4825 42.6617 11.4814 42.509 13.6505L42.4877 13.7286C41.2062 17.2538 38.6502 20.0725 35.4764 21.4641C35.1647 21.572 34.8993 21.7833 34.7242 22.063C34.5492 22.3426 34.4752 22.6737 34.5144 23.0013C34.5534 26.0791 34.5144 29.0754 34.5144 32.1213C31.5171 30.8193 28.2841 30.1474 25.0163 30.1474C21.7484 30.1474 18.5154 30.8193 15.5182 32.1213C15.5182 29.0754 15.4933 26.0862 15.5182 23.0013C15.5574 22.6737 15.4833 22.3426 15.3083 22.063C15.1333 21.7833 14.8679 21.572 14.5561 21.4641C11.3824 20.0725 8.82636 17.2538 7.5448 13.7286L7.5235 13.6505C7.37085 11.4814 11.6344 12.4825 17.3606 13.6718C17.3365 12.894 17.384 12.1156 17.5026 11.3465C17.5522 11.0276 17.7071 10.7345 17.9427 10.5138C18.1782 10.2932 18.4809 10.1578 18.8024 10.1292C19.1238 10.1006 19.4456 10.1805 19.7164 10.3561C19.9872 10.5316 20.1914 10.7928 20.2965 11.098C20.6392 12.1433 21.0703 13.1576 21.5852 14.1297C22.5474 13.8542 23.5364 13.6828 24.5352 13.6185H25.4973Z" fill="#193151"/>
<path d="M25.1179 14.6691C26.4198 14.7213 27.7074 14.9604 28.9413 15.3791C29.6967 14.138 30.302 12.8117 30.7447 11.4279C30.7672 11.3446 30.8192 11.2724 30.8911 11.2247C30.963 11.1771 31.0497 11.1571 31.1352 11.1688C31.2246 11.1685 31.3109 11.202 31.3767 11.2625C31.4425 11.3231 31.4831 11.4062 31.4902 11.4954C31.6476 12.6392 31.6643 13.7981 31.5399 14.946C32.2215 14.843 32.3919 14.8182 33.2936 14.6158C39.0376 13.352 40.9191 13.3023 41.4338 13.5189C40.2339 16.6926 37.9158 19.2238 35.0438 20.4769C34.5412 20.6681 34.1141 21.017 33.8267 21.4715C33.5393 21.926 33.407 22.4614 33.4498 22.9975C33.4818 25.5535 33.4498 28.0563 33.4498 30.5697C28.0094 28.5485 22.024 28.5485 16.5836 30.5697C16.5836 28.0563 16.5659 25.5535 16.5836 22.9975C16.6264 22.4614 16.4942 21.926 16.2068 21.4715C15.9194 21.017 15.4923 20.6681 14.9897 20.4769C12.1283 19.2238 9.81017 16.6926 8.59961 13.5189C9.11436 13.3023 10.9959 13.352 16.7398 14.6158C17.6415 14.8182 17.8048 14.843 18.4935 14.946C18.3692 13.7981 18.3859 12.6392 18.5432 11.4954C18.5504 11.4062 18.5909 11.3231 18.6568 11.2625C18.7226 11.202 18.8088 11.1685 18.8982 11.1688C18.9837 11.1571 19.0705 11.1771 19.1423 11.2247C19.2142 11.2724 19.2662 11.3446 19.2887 11.4279C19.7314 12.8117 20.3368 14.138 21.0922 15.3791C22.326 14.9604 23.6136 14.7213 24.9155 14.6691H25.1179Z" fill="#BFD5EB"/>
<path d="M20.2656 24.4641C19.7841 24.4585 19.3241 24.2635 18.9853 23.9214C18.6465 23.5792 18.456 23.1174 18.4551 22.6358C18.4615 22.4069 18.5132 22.1814 18.607 21.9725C18.7008 21.7635 18.835 21.5751 19.0018 21.4182C19.3412 21.094 19.7927 20.9134 20.262 20.9141C20.9822 20.9624 21.688 21.1391 22.3459 21.4359C23.0808 21.7554 23.6949 22.1992 23.6914 22.6891C23.6878 23.179 23.0737 23.6192 22.3388 23.9387C21.6832 24.2321 20.9818 24.4098 20.2656 24.4641V24.4641Z" fill="#FFD700"/>
<path d="M20.2479 24.9468C19.639 24.9375 19.0582 24.6885 18.6316 24.2539C18.205 23.8193 17.9668 23.2341 17.9688 22.6251C17.9778 22.3312 18.0452 22.042 18.1671 21.7745C18.289 21.5069 18.4629 21.2663 18.6788 21.0666C19.1063 20.6564 19.6767 20.4285 20.2692 20.4312V20.4312C21.0541 20.48 21.8238 20.67 22.5412 20.9921C23.6062 21.4607 24.1813 22.0571 24.1813 22.689C24.1813 23.3209 23.6098 23.9138 22.5341 24.3824C21.8195 24.7023 21.0539 24.8933 20.2727 24.9468H20.2514H20.2479ZM20.2479 21.3968C19.9035 21.3966 19.5726 21.5303 19.3249 21.7695C19.2034 21.8818 19.1057 22.0172 19.0374 22.1678C18.9691 22.3183 18.9317 22.4811 18.9273 22.6464C18.9267 22.8199 18.9607 22.9918 19.0271 23.152C19.0935 23.3123 19.1911 23.4578 19.3142 23.5801C19.4363 23.7054 19.582 23.8053 19.7428 23.8742C19.9036 23.943 20.0765 23.9794 20.2514 23.9812V23.9812C20.9015 23.9258 21.5375 23.7614 22.133 23.4949C22.914 23.1399 23.198 22.8274 23.198 22.6854C23.198 22.5434 22.9175 22.2168 22.133 21.8796C21.5356 21.612 20.8968 21.4487 20.2443 21.3968H20.2479Z" fill="#193151"/>
<path d="M11.6668 15.184L16.1043 16.2135C16.1518 16.2239 16.1948 16.2492 16.2268 16.2858C16.2589 16.3225 16.2783 16.3684 16.2823 16.4169C16.2863 16.4654 16.2746 16.5139 16.2489 16.5552C16.2233 16.5966 16.185 16.6286 16.1398 16.6466C15.2558 17.0016 13.6548 17.5341 12.8986 16.9661C11.8017 16.1496 11.4609 15.6952 11.3934 15.4467C11.3857 15.4096 11.3874 15.3711 11.3986 15.3349C11.4098 15.2987 11.43 15.2659 11.4573 15.2396C11.4847 15.2134 11.5182 15.1945 11.5549 15.1848C11.5915 15.175 11.63 15.1747 11.6668 15.184V15.184Z" fill="#193151"/>
<path d="M29.7949 24.4641C30.277 24.4603 30.7381 24.266 31.0773 23.9234C31.4165 23.5808 31.6064 23.1179 31.6055 22.6358C31.599 22.4069 31.5474 22.1814 31.4535 21.9725C31.3597 21.7635 31.2256 21.5751 31.0587 21.4182C30.7193 21.094 30.2678 20.9134 29.7985 20.9141C29.0783 20.9624 28.3726 21.1391 27.7146 21.4359C26.9798 21.7554 26.3656 22.1992 26.3692 22.6891C26.3727 23.179 26.9869 23.6192 27.7217 23.9387C28.3773 24.2321 29.0787 24.4098 29.7949 24.4641Z" fill="#FFD700"/>
<path d="M29.8143 24.9468C30.4232 24.9375 31.004 24.6885 31.4306 24.2539C31.8572 23.8193 32.0954 23.2341 32.0934 22.6251C32.0844 22.3312 32.017 22.042 31.8951 21.7745C31.7732 21.5069 31.5993 21.2663 31.3834 21.0666C30.9558 20.6564 30.3855 20.4285 29.793 20.4312V20.4312C29.0081 20.48 28.2384 20.67 27.521 20.9921C26.456 21.4607 25.8809 22.0571 25.8809 22.689C25.8809 23.3209 26.4524 23.9138 27.5281 24.3824C28.2427 24.7023 29.0083 24.8933 29.7894 24.9468H29.8107H29.8143ZM29.8143 21.3968C30.1587 21.3966 30.4896 21.5303 30.7373 21.7695C30.8587 21.8818 30.9565 22.0172 31.0248 22.1678C31.093 22.3183 31.1305 22.4811 31.1349 22.6464C31.1355 22.8199 31.1015 22.9918 31.0351 23.152C30.9687 23.3123 30.8711 23.4578 30.7479 23.5801C30.6259 23.7054 30.4802 23.8053 30.3194 23.8742C30.1585 23.943 29.9857 23.9794 29.8107 23.9812V23.9812C29.1607 23.9258 28.5247 23.7614 27.9292 23.4949C27.1482 23.1399 26.8642 22.8274 26.8642 22.6854C26.8642 22.5434 27.1447 22.2168 27.9292 21.8796C28.5266 21.612 29.1654 21.4487 29.8178 21.3968H29.8143Z" fill="#193151"/>
<path d="M38.3937 15.184L33.9561 16.2135C33.9086 16.2239 33.8656 16.2492 33.8336 16.2858C33.8015 16.3225 33.7821 16.3684 33.7781 16.4169C33.7741 16.4654 33.7858 16.5139 33.8115 16.5552C33.8371 16.5966 33.8754 16.6286 33.9206 16.6466C34.8046 17.0016 36.4056 17.5341 37.1618 16.9661C38.2587 16.1496 38.5995 15.6952 38.667 15.4467C38.6747 15.4096 38.673 15.3711 38.6618 15.3349C38.6506 15.2987 38.6304 15.2659 38.603 15.2396C38.5757 15.2134 38.5422 15.1945 38.5055 15.1848C38.4689 15.175 38.4304 15.1747 38.3937 15.184V15.184Z" fill="#193151"/>
<path d="M35.4906 32.8278C33.6695 30.861 31.2838 29.9877 28.7456 29.4694C27.5558 29.2072 26.339 29.0881 25.121 29.1144H24.947C23.729 29.0881 22.5122 29.2072 21.3225 29.4694C18.7806 29.9735 16.395 30.861 14.5774 32.8278C13.1041 34.4253 12.6888 36.4168 13.6224 38.0818C14.2241 39.2403 15.1204 40.2199 16.2211 40.9218C18.2899 42.1132 20.5898 42.848 22.9661 43.0767C23.6222 43.1549 24.2828 43.1893 24.9435 43.1796H25.1174C25.7781 43.1893 26.4387 43.1549 27.0948 43.0767C29.4712 42.848 31.771 42.1132 33.8399 40.9218C34.9405 40.2199 35.8368 39.2403 36.4385 38.0818C37.3792 36.4168 36.9639 34.4253 35.4906 32.8278Z" fill="#9AB6CC"/>
<path d="M34.4838 32.6043C32.8472 31.1133 30.7066 30.4424 28.4239 30.0625C27.3354 29.8495 26.2279 29.7495 25.1188 29.7643H24.9591C23.8482 29.7444 22.7382 29.8395 21.6469 30.0483C19.3642 30.4282 17.2236 31.1133 15.587 32.5901C14.2628 33.7972 13.8936 35.3059 14.7279 36.5662C15.3026 37.479 16.1085 38.2237 17.0638 38.7246C18.9667 39.6389 21.0226 40.1926 23.1273 40.3576C23.7549 40.4189 24.3854 40.4449 25.0159 40.4357H25.062C25.6925 40.4449 26.3231 40.4189 26.9506 40.3576C29.0553 40.1926 31.1112 39.6389 33.0141 38.7246C33.9694 38.2237 34.7753 37.479 35.35 36.5662C36.1772 35.3024 35.808 33.7936 34.4838 32.6043Z" fill="#BFD5EB"/>
<path d="M20.4117 36.8037C19.3786 37.3078 18.4166 36.8037 18.232 35.6606C18.0296 34.4358 19.6804 31.5248 20.0602 33.7258C20.4401 35.9268 22.1299 32.849 22.1405 34.2264C22.1128 34.7723 21.9373 35.3004 21.6328 35.7544C21.3283 36.2083 20.9063 36.571 20.4117 36.8037Z" fill="#193151"/>
<path d="M35.916 32.4338C33.7469 30.0908 30.8465 29.2921 28.855 28.8838H28.8088C27.7666 28.6526 26.7026 28.5336 25.6351 28.5288V28.5288H24.4245C23.357 28.5336 22.293 28.6526 21.2508 28.8838H21.2046C19.2131 29.2779 16.3127 30.0766 14.1436 32.4338C12.468 34.2444 12.074 36.5199 13.107 38.3659C13.7537 39.6198 14.723 40.6786 15.9151 41.4332C17.8854 42.6189 20.1041 43.3289 22.8944 43.6661C23.5175 43.7422 24.1447 43.7801 24.7724 43.7797H25.2872C25.9149 43.7801 26.542 43.7422 27.1651 43.6661C29.9555 43.3289 32.1742 42.6189 34.1445 41.4332C35.3366 40.6786 36.3059 39.6198 36.9526 38.3659C37.9856 36.5093 37.5916 34.2444 35.916 32.4338ZM35.9373 37.7979C35.3872 38.8735 34.5615 39.7837 33.5445 40.4356C31.7198 41.5326 29.6395 42.2106 27.0231 42.5124C26.3906 42.5878 25.7537 42.621 25.1168 42.6118H24.9428C24.3059 42.621 23.669 42.5878 23.0365 42.5124C20.413 42.1929 18.3398 41.5326 16.515 40.4356C15.498 39.7837 14.6723 38.8735 14.1223 37.7979C13.3307 36.3779 13.6573 34.6739 14.9992 33.2255C16.4937 31.6067 18.4782 30.6233 21.4318 30.0305H21.4744C22.6334 29.7714 23.8193 29.6522 25.0067 29.6755H25.0529C26.2403 29.6522 27.4261 29.7714 28.5851 30.0305H28.6278C31.5814 30.6127 33.5658 31.596 35.0604 33.2255C36.4023 34.6739 36.7289 36.385 35.9373 37.7979V37.7979Z" fill="#193151"/>
<path d="M29.6507 36.8037C30.6838 37.3078 31.6459 36.8037 31.8305 35.6606C32.0328 34.4358 30.3821 31.5248 30.0022 33.7258C29.6223 35.9268 27.9325 32.849 27.9219 34.2264C27.9496 34.7723 28.1251 35.3004 28.4296 35.7544C28.7341 36.2083 29.1562 36.571 29.6507 36.8037Z" fill="#193151"/>
<mask id="mask0_1997_2596" style="mask-type:alpha" maskUnits="userSpaceOnUse" x="0" y="0" width="50" height="50">
<circle cx="25" cy="25" r="25" fill="#2B4266"/>
</mask>
<g mask="url(#mask0_1997_2596)">
<path d="M46.5691 43.2544L27.4113 22.2357L30.3223 22.058L52.7672 39.2842C52.7672 39.2842 51.5147 40.9008 50.4225 41.7961C49.3628 42.6647 46.5691 43.2544 46.5691 43.2544Z" fill="#FFD700" fill-opacity="0.4"/>
<path d="M26.5731 52.0468L19.4235 22.373L22.4519 23.4164L34.0609 50.5653C34.0609 50.5653 32.1484 51.7024 30.7328 52.1648C29.3595 52.6134 26.5731 52.0468 26.5731 52.0468Z" fill="#FFD700" fill-opacity="0.4"/>
</g>
</svg>
